HIERARCHY
ROOT	Hips
{
	OFFSET	0.000	0.000	0.000
	CHANNELS	6	Xposition	Yposition	Zposition	Yrotation	Xrotation	Zrotation
	JOINT	LeftThigh
	{
		OFFSET	7.642	-0.000	0.000
		CHANNELS	3	Yrotation	Xrotation	Zrotation
		JOINT	LeftShin
		{
			OFFSET	0.000	-40.759	0.000
			CHANNELS	3	Yrotation	Xrotation	Zrotation
			JOINT	LeftFoot
			{
				OFFSET	0.000	-40.854	-0.059
				CHANNELS	3	Yrotation	Xrotation	Zrotation
				JOINT	LeftToe
				{
					OFFSET	0.000	-12.409	5.879
					CHANNELS	3	Yrotation	Xrotation	Zrotation
					End Site
					{
						OFFSET	0.000	-7.016	1.185
					}
				}
			}
		}
	}
	JOINT	RightThigh
	{
		OFFSET	-7.642	0.000	-0.000
		CHANNELS	3	Yrotation	Xrotation	Zrotation
		JOINT	RightShin
		{
			OFFSET	-0.000	-40.759	0.000
			CHANNELS	3	Yrotation	Xrotation	Zrotation
			JOINT	RightFoot
			{
				OFFSET	0.000	-40.854	-0.059
				CHANNELS	3	Yrotation	Xrotation	Zrotation
				JOINT	RightToe
				{
					OFFSET	-0.000	-12.409	5.879
					CHANNELS	3	Yrotation	Xrotation	Zrotation
					End Site
					{
						OFFSET	0.000	-7.016	1.185
					}
				}
			}
		}
	}
	JOINT	Spine1
	{
		OFFSET	0.000	8.005	-3.725
		CHANNELS	3	Yrotation	Xrotation	Zrotation
		JOINT	Spine2
		{
			OFFSET	0.000	-7.164	-0.000
			CHANNELS	3	Yrotation	Xrotation	Zrotation
			JOINT	Spine3
			{
				OFFSET	0.000	-7.164	0.000
				CHANNELS	3	Yrotation	Xrotation	Zrotation
				JOINT	Spine4
				{
					OFFSET	0.000	-12.097	-0.000
					CHANNELS	3	Yrotation	Xrotation	Zrotation
					JOINT	LeftShoulder
					{
						OFFSET	-6.642	-11.736	1.807
						CHANNELS	3	Yrotation	Xrotation	Zrotation
						JOINT	LeftArm
						{
							OFFSET	-0.000	-12.849	0.000
							CHANNELS	3	Yrotation	Xrotation	Zrotation
							JOINT	LeftForeArm
							{
								OFFSET	0.000	-24.625	0.000
								CHANNELS	3	Yrotation	Xrotation	Zrotation
								JOINT	LeftHand
								{
									OFFSET	-0.000	-27.116	0.000
									CHANNELS	3	Yrotation	Xrotation	Zrotation
									JOINT	LeftFinger1Metacarpal
									{
										OFFSET	2.664	-1.988	0.099
										CHANNELS	3	Yrotation	Xrotation	Zrotation
										JOINT	LeftFinger1Proximal
										{
											OFFSET	0.000	-3.769	0.000
											CHANNELS	3	Yrotation	Xrotation	Zrotation
											JOINT	LeftFinger1Distal
											{
												OFFSET	0.000	-2.861	-0.000
												CHANNELS	3	Yrotation	Xrotation	Zrotation
												End Site
												{
													OFFSET	0.000	-3.269	-0.000
												}
											}
										}
									}
									JOINT	LeftFinger2Metacarpal
									{
										OFFSET	1.534	-2.531	0.099
										CHANNELS	3	Yrotation	Xrotation	Zrotation
										JOINT	LeftFinger2Proximal
										{
											OFFSET	-0.000	-5.243	-0.000
											CHANNELS	3	Yrotation	Xrotation	Zrotation
											JOINT	LeftFinger2Medial
											{
												OFFSET	0.000	-4.425	-0.000
												CHANNELS	3	Yrotation	Xrotation	Zrotation
												JOINT	LeftFinger2Distal
												{
													OFFSET	-0.000	-2.723	0.000
													CHANNELS	3	Yrotation	Xrotation	Zrotation
													End Site
													{
														OFFSET	-0.000	-2.668	-0.000
													}
												}
											}
										}
									}
									JOINT	LeftFinger3Metacarpal
									{
										OFFSET	0.521	-2.647	0.098
										CHANNELS	3	Yrotation	Xrotation	Zrotation
										JOINT	LeftFinger3Proximal
										{
											OFFSET	-0.000	-5.132	0.000
											CHANNELS	3	Yrotation	Xrotation	Zrotation
											JOINT	LeftFinger3Medial
											{
												OFFSET	-0.000	-4.496	-0.000
												CHANNELS	3	Yrotation	Xrotation	Zrotation
												JOINT	LeftFinger3Distal
												{
													OFFSET	-0.000	-2.965	0.000
													CHANNELS	3	Yrotation	Xrotation	Zrotation
													End Site
													{
														OFFSET	-0.000	-2.868	-0.000
													}
												}
											}
										}
									}
									JOINT	LeftFinger4Metacarpal
									{
										OFFSET	-0.524	-2.624	0.099
										CHANNELS	3	Yrotation	Xrotation	Zrotation
										JOINT	LeftFinger4Proximal
										{
											OFFSET	-0.000	-4.891	0.000
											CHANNELS	3	Yrotation	Xrotation	Zrotation
											JOINT	LeftFinger4Medial
											{
												OFFSET	0.000	-4.243	-0.000
												CHANNELS	3	Yrotation	Xrotation	Zrotation
												JOINT	LeftFinger4Distal
												{
													OFFSET	-0.000	-2.737	0.000
													CHANNELS	3	Yrotation	Xrotation	Zrotation
													End Site
													{
														OFFSET	-0.000	-2.664	-0.000
													}
												}
											}
										}
									}
									JOINT	LeftFinger5Metacarpal
									{
										OFFSET	-1.423	-2.380	0.098
										CHANNELS	3	Yrotation	Xrotation	Zrotation
										JOINT	LeftFinger5Proximal
										{
											OFFSET	-0.000	-4.585	-0.000
											CHANNELS	3	Yrotation	Xrotation	Zrotation
											JOINT	LeftFinger5Medial
											{
												OFFSET	-0.000	-3.598	0.000
												CHANNELS	3	Yrotation	Xrotation	Zrotation
												JOINT	LeftFinger5Distal
												{
													OFFSET	0.000	-2.262	-0.000
													CHANNELS	3	Yrotation	Xrotation	Zrotation
													End Site
													{
														OFFSET	-0.000	-2.304	0.000
													}
												}
											}
										}
									}
								}
							}
						}
					}
					JOINT	Neck
					{
						OFFSET	0.000	-19.121	-0.000
						CHANNELS	3	Yrotation	Xrotation	Zrotation
						JOINT	Head
						{
							OFFSET	0.000	-9.862	0.000
							CHANNELS	3	Yrotation	Xrotation	Zrotation
							End Site
							{
								OFFSET	0.000	-14.898	0.000
							}
						}
					}
					JOINT	RightShoulder
					{
						OFFSET	6.642	-11.736	1.807
						CHANNELS	3	Yrotation	Xrotation	Zrotation
						JOINT	RightArm
						{
							OFFSET	-0.000	-12.849	-0.000
							CHANNELS	3	Yrotation	Xrotation	Zrotation
							JOINT	RightForeArm
							{
								OFFSET	-0.000	-24.625	0.000
								CHANNELS	3	Yrotation	Xrotation	Zrotation
								JOINT	RightHand
								{
									OFFSET	0.000	-27.116	0.000
									CHANNELS	3	Yrotation	Xrotation	Zrotation
									JOINT	RightFinger1Metacarpal
									{
										OFFSET	-2.664	-1.988	0.099
										CHANNELS	3	Yrotation	Xrotation	Zrotation
										JOINT	RightFinger1Proximal
										{
											OFFSET	-0.000	-3.769	-0.000
											CHANNELS	3	Yrotation	Xrotation	Zrotation
											JOINT	RightFinger1Distal
											{
												OFFSET	0.000	-2.861	-0.000
												CHANNELS	3	Yrotation	Xrotation	Zrotation
												End Site
												{
													OFFSET	-0.000	-3.269	-0.000
												}
											}
										}
									}
									JOINT	RightFinger2Metacarpal
									{
										OFFSET	-1.534	-2.531	0.099
										CHANNELS	3	Yrotation	Xrotation	Zrotation
										JOINT	RightFinger2Proximal
										{
											OFFSET	0.000	-5.243	-0.000
											CHANNELS	3	Yrotation	Xrotation	Zrotation
											JOINT	RightFinger2Medial
											{
												OFFSET	-0.000	-4.425	-0.000
												CHANNELS	3	Yrotation	Xrotation	Zrotation
												JOINT	RightFinger2Distal
												{
													OFFSET	0.000	-2.723	-0.000
													CHANNELS	3	Yrotation	Xrotation	Zrotation
													End Site
													{
														OFFSET	0.000	-2.668	-0.000
													}
												}
											}
										}
									}
									JOINT	RightFinger3Metacarpal
									{
										OFFSET	-0.521	-2.647	0.098
										CHANNELS	3	Yrotation	Xrotation	Zrotation
										JOINT	RightFinger3Proximal
										{
											OFFSET	0.000	-5.132	0.000
											CHANNELS	3	Yrotation	Xrotation	Zrotation
											JOINT	RightFinger3Medial
											{
												OFFSET	0.000	-4.496	-0.000
												CHANNELS	3	Yrotation	Xrotation	Zrotation
												JOINT	RightFinger3Distal
												{
													OFFSET	-0.000	-2.965	-0.000
													CHANNELS	3	Yrotation	Xrotation	Zrotation
													End Site
													{
														OFFSET	0.000	-2.868	-0.000
													}
												}
											}
										}
									}
									JOINT	RightFinger4Metacarpal
									{
										OFFSET	0.524	-2.624	0.099
										CHANNELS	3	Yrotation	Xrotation	Zrotation
										JOINT	RightFinger4Proximal
										{
											OFFSET	0.000	-4.891	0.000
											CHANNELS	3	Yrotation	Xrotation	Zrotation
											JOINT	RightFinger4Medial
											{
												OFFSET	-0.000	-4.243	-0.000
												CHANNELS	3	Yrotation	Xrotation	Zrotation
												JOINT	RightFinger4Distal
												{
													OFFSET	0.000	-2.737	0.000
													CHANNELS	3	Yrotation	Xrotation	Zrotation
													End Site
													{
														OFFSET	0.000	-2.664	-0.000
													}
												}
											}
										}
									}
									JOINT	RightFinger5Metacarpal
									{
										OFFSET	1.423	-2.380	0.098
										CHANNELS	3	Yrotation	Xrotation	Zrotation
										JOINT	RightFinger5Proximal
										{
											OFFSET	0.000	-4.585	0.000
											CHANNELS	3	Yrotation	Xrotation	Zrotation
											JOINT	RightFinger5Medial
											{
												OFFSET	0.000	-3.598	0.000
												CHANNELS	3	Yrotation	Xrotation	Zrotation
												JOINT	RightFinger5Distal
												{
													OFFSET	-0.000	-2.262	-0.000
													CHANNELS	3	Yrotation	Xrotation	Zrotation
													End Site
													{
														OFFSET	0.000	-2.304	0.000
													}
												}
											}
										}
									}
								}
							}
						}
					}
				}
			}
		}
	}
}
MOTION
Frames:	8
Frame Time:	0.010
-0.000	88.689	0.000	-0.000	-0.000	-0.000	-90.000	-0.000	-0.000	-0.000	-0.000	0.000	-90.000	90.000	-0.000	0.000	-0.000	-0.000	-270.000	0.000	-0.000	-0.000	-0.000	-0.000	-270.000	90.000	-0.000	0.000	-0.000	0.000	-0.000	0.000	-180.000	0.000	-0.000	0.000	0.000	-0.000	0.000	0.000	-0.000	0.000	-15.000	-0.000	-90.000	-90.000	0.000	-345.000	-0.000	-0.000	-0.000	-0.000	-0.000	-0.000	-40.893	20.705	-337.792	-355.893	339.295	-22.208	-0.000	-0.000	-0.000	-0.000	-0.000	-350.000	-0.000	0.000	-10.000	-0.000	0.000	-0.000	-0.000	0.000	-0.000	-0.000	-0.000	0.000	0.000	0.000	-0.000	-0.000	0.000	-0.000	0.000	0.000	-0.000	0.000	-0.000	-10.000	-0.000	0.000	-350.000	-0.000	-0.000	-0.000	0.000	0.000	-0.000	0.000	-0.000	-20.000	0.000	0.000	-340.000	-0.000	0.000	-0.000	0.000	0.000	0.000	0.000	-0.000	0.000	0.000	-0.000	0.000	-345.000	-0.000	-270.000	-270.000	0.000	-15.000	-0.000	-0.000	-0.000	-0.000	-0.000	-0.000	-319.107	20.705	-22.208	-4.107	339.295	-337.792	-0.000	-0.000	-0.000	0.000	-0.000	-10.000	0.000	0.000	-350.000	-0.000	0.000	-0.000	-0.000	0.000	-0.000	0.000	-0.000	-0.000	-0.000	0.000	0.000	0.000	0.000	-0.000	-0.000	-0.000	-0.000	-0.000	-0.000	-350.000	0.000	0.000	-10.000	-0.000	-0.000	-0.000	-0.000	-0.000	-0.000	-0.000	-0.000	-340.000	-0.000	0.000	-20.000	0.000	0.000	0.000	-0.000	0.000	-0.000	
-0.000	88.689	0.000	-0.000	-0.000	-0.000	-90.000	-0.000	-0.000	-0.000	-0.000	0.000	-90.000	90.000	-0.000	0.000	-0.000	-0.000	-270.000	0.000	-0.000	-0.000	-0.000	-0.000	-270.000	90.000	-0.000	0.000	-0.000	0.000	-0.000	0.000	-180.000	0.000	-0.000	0.000	0.000	-0.000	0.000	0.000	-0.000	0.000	-15.000	-0.000	-90.000	-90.000	0.000	-345.000	-0.000	-0.000	-0.000	-0.000	-0.000	-0.000	-40.893	20.705	-337.792	-355.893	339.295	-22.208	-0.000	-0.000	-0.000	-0.000	-0.000	-350.000	-0.000	0.000	-10.000	-0.000	0.000	-0.000	-0.000	0.000	-0.000	-0.000	-0.000	0.000	0.000	0.000	-0.000	-0.000	0.000	-0.000	0.000	0.000	-0.000	0.000	-0.000	-10.000	-0.000	0.000	-350.000	-0.000	-0.000	-0.000	0.000	0.000	-0.000	0.000	-0.000	-20.000	0.000	0.000	-340.000	-0.000	0.000	-0.000	0.000	0.000	0.000	0.000	-0.000	0.000	0.000	-0.000	0.000	-345.000	-0.000	-270.000	-270.000	0.000	-15.000	-0.000	-0.000	-0.000	-0.000	-0.000	-0.000	-319.107	20.705	-22.208	-4.107	339.295	-337.792	-0.000	-0.000	-0.000	0.000	-0.000	-10.000	0.000	0.000	-350.000	-0.000	0.000	-0.000	-0.000	0.000	-0.000	0.000	-0.000	-0.000	-0.000	0.000	0.000	0.000	0.000	-0.000	-0.000	-0.000	-0.000	-0.000	-0.000	-350.000	0.000	0.000	-10.000	-0.000	-0.000	-0.000	-0.000	-0.000	-0.000	-0.000	-0.000	-340.000	-0.000	0.000	-20.000	0.000	0.000	0.000	-0.000	0.000	-0.000	
-8.258	88.370	49.967	-312.165	23.901	-335.730	-101.689	355.673	-348.084	-0.000	-0.000	-0.322	-82.535	54.247	-0.378	0.000	38.434	-6.641	-295.302	5.668	-50.526	-359.647	359.902	-328.858	-107.838	77.508	-191.266	-0.000	0.695	-0.004	-358.991	3.425	-175.713	-1.012	356.567	-355.702	-1.013	356.565	-355.700	0.000	-0.000	-0.000	-11.328	0.718	-89.097	-186.254	296.357	-267.507	-5.408	355.782	-330.572	-358.773	355.929	-17.398	-63.513	13.252	-324.644	-22.229	351.538	-12.437	-0.000	357.963	-0.000	-0.000	0.000	-350.000	-358.222	332.078	-7.144	-0.000	331.779	0.000	-0.000	341.186	-0.000	-0.000	-0.000	0.000	-0.544	324.249	-358.315	-0.000	324.286	-0.000	-0.000	336.191	-0.000	-357.274	357.452	-10.128	-3.698	321.989	-349.290	-0.000	321.618	0.000	-0.000	334.412	-0.000	-354.070	354.881	-20.590	-4.285	330.028	-344.089	-0.000	328.131	0.000	-0.000	338.754	-0.000	-346.764	10.987	-1.445	-346.764	10.987	-1.445	-350.834	4.928	-278.527	-273.466	315.339	-47.726	-34.364	0.367	-27.002	-333.917	69.858	-12.455	-274.911	18.946	-28.826	-8.998	330.557	-349.658	-0.000	339.631	-0.000	0.000	-0.000	-10.000	-3.283	336.289	-344.455	-0.000	334.610	0.000	-0.000	343.073	-0.000	0.000	-0.000	-0.000	-1.743	335.244	-352.071	0.000	334.836	-0.000	-0.000	343.224	-0.000	-2.726	357.452	-349.872	-359.191	338.865	-4.337	-0.000	338.764	0.000	-0.000	345.843	-0.000	-5.930	354.881	-339.410	-0.226	336.353	-358.920	0.000	336.372	0.000	-0.000	344.248	-0.000	
-8.261	88.373	49.919	-312.130	23.920	-335.643	-101.719	355.603	-348.173	0.000	0.000	-0.016	-82.641	54.084	-0.461	-0.000	38.423	-6.641	-295.398	5.687	-50.651	-359.647	359.902	-328.799	-107.572	77.518	-191.081	-0.000	0.698	-0.004	-358.994	3.423	-175.728	-1.009	356.569	-355.718	-1.010	356.567	-355.715	0.000	-0.000	-0.000	-11.322	0.724	-89.109	-186.088	296.352	-267.700	-5.409	355.676	-330.497	-358.784	355.916	-17.438	-63.512	13.255	-324.643	-22.232	351.546	-12.435	-0.000	357.968	-0.000	-0.000	0.000	-350.000	-358.222	332.080	-7.143	-0.000	331.781	-0.000	-0.000	341.187	-0.000	-0.000	-0.000	0.000	-0.544	324.252	-358.312	-0.000	324.288	-0.000	-0.000	336.192	-0.000	-357.274	357.452	-10.128	-3.698	321.989	-349.290	-0.000	321.617	0.000	-0.000	334.411	-0.000	-354.070	354.881	-20.590	-4.286	330.024	-344.088	-0.000	328.133	0.000	-0.000	338.756	-0.000	-346.768	11.010	-1.462	-346.768	11.010	-1.462	-350.832	4.951	-278.557	-273.464	315.426	-47.715	-34.376	0.343	-26.977	-333.755	69.861	-12.252	-274.905	18.922	-28.826	-9.030	330.486	-349.647	-0.000	339.582	-0.000	0.000	-0.000	-10.000	-3.278	336.320	-344.456	-0.000	334.612	0.000	-0.000	343.075	-0.000	0.000	-0.000	-0.000	-1.740	335.274	-352.074	0.000	334.867	-0.000	-0.000	343.245	-0.000	-2.726	357.452	-349.872	-359.196	338.894	-4.316	0.000	338.793	-0.000	-0.000	345.862	-0.000	-5.930	354.881	-339.410	-0.236	336.320	-358.876	-0.000	336.341	0.000	-0.000	344.227	-0.000	
-8.264	88.369	49.909	-312.092	23.918	-335.567	-101.706	355.540	-348.144	-0.000	0.000	-0.016	-82.627	54.112	-0.380	0.000	38.387	-6.611	-295.498	5.701	-50.758	-359.654	359.903	-328.706	-107.276	77.502	-190.868	-0.000	0.706	-0.004	-358.999	3.430	-175.735	-1.003	356.562	-355.725	-1.004	356.560	-355.722	0.000	-0.000	-0.000	-11.315	0.732	-89.133	-186.141	296.401	-267.644	-5.381	355.714	-330.499	-358.795	355.884	-17.458	-63.511	13.257	-324.643	-22.236	351.554	-12.437	-0.000	357.975	-0.000	-0.000	0.000	-350.000	-358.273	332.173	-6.962	0.000	331.892	-0.000	-0.000	341.262	-0.000	-0.000	-0.000	0.000	-0.605	324.329	-358.120	0.000	324.361	0.000	-0.000	336.240	-0.000	-357.274	357.452	-10.128	-3.756	322.091	-349.094	-0.000	321.687	0.000	-0.000	334.458	-0.000	-354.070	354.881	-20.590	-4.272	330.106	-344.094	0.000	328.171	-0.000	-0.000	338.781	-0.000	-346.775	11.040	-1.483	-346.775	11.040	-1.483	-350.833	4.981	-278.599	-273.458	315.521	-47.708	-34.387	0.333	-26.949	-333.519	69.862	-11.970	-274.894	18.886	-28.820	-9.079	330.379	-349.616	-0.000	339.506	-0.000	0.000	-0.000	-10.000	-3.270	336.371	-344.459	0.000	334.630	0.000	-0.000	343.087	-0.000	0.000	-0.000	-0.000	-1.738	335.324	-352.067	0.000	334.917	0.000	-0.000	343.278	-0.000	-2.726	357.452	-349.872	-359.206	338.942	-4.270	-0.000	338.843	0.000	-0.000	345.895	-0.000	-5.930	354.881	-339.410	-0.254	336.284	-358.789	0.000	336.307	-0.000	-0.000	344.204	-0.000	
-8.271	88.362	49.910	-312.039	23.904	-335.485	-101.890	355.518	-348.116	-0.000	-0.000	0.000	-82.591	54.043	-0.436	0.000	38.441	-6.632	-295.616	5.710	-50.861	-359.659	359.904	-328.584	-107.053	77.471	-190.719	0.000	0.730	-0.005	-359.001	3.436	-175.731	-1.002	356.556	-355.721	-1.002	356.554	-355.718	0.000	-0.000	-0.000	-11.274	0.725	-89.191	-186.176	296.453	-267.591	-5.351	355.749	-330.503	-358.792	355.880	-17.441	-63.511	13.257	-324.643	-22.236	351.554	-12.437	-0.000	357.975	-0.000	-0.000	0.000	-350.000	-358.273	332.173	-6.962	0.000	331.892	-0.000	-0.000	341.262	-0.000	-0.000	-0.000	0.000	-0.605	324.329	-358.120	0.000	324.361	0.000	-0.000	336.240	-0.000	-357.274	357.452	-10.128	-3.756	322.091	-349.094	-0.000	321.687	0.000	-0.000	334.458	-0.000	-354.070	354.881	-20.590	-4.272	330.106	-344.094	0.000	328.171	-0.000	-0.000	338.781	-0.000	-346.775	11.070	-1.518	-346.775	11.070	-1.518	-350.810	5.018	-278.665	-273.445	315.633	-47.703	-34.403	0.336	-26.912	-333.363	69.900	-11.707	-274.887	18.859	-28.817	-9.116	330.299	-349.596	-0.000	339.450	-0.000	0.000	-0.000	-10.000	-3.264	336.410	-344.461	-0.000	334.652	0.000	-0.000	343.101	-0.000	0.000	-0.000	-0.000	-1.736	335.358	-352.066	-0.000	334.953	0.000	-0.000	343.302	-0.000	-2.726	357.452	-349.872	-359.214	338.973	-4.233	0.000	338.875	-0.000	-0.000	345.916	-0.000	-5.930	354.881	-339.410	-0.271	336.256	-358.711	0.000	336.279	0.000	-0.000	344.186	-0.000	
-8.280	88.352	49.920	-311.975	23.893	-335.391	-102.070	355.489	-348.030	-0.000	0.000	-0.084	-82.655	53.962	-0.606	-0.000	38.541	-6.697	-295.735	5.721	-50.978	-359.665	359.905	-328.444	-106.891	77.435	-190.613	0.000	0.765	-0.005	-359.009	3.434	-175.742	-0.993	356.558	-355.732	-0.994	356.556	-355.729	0.000	-0.000	-0.000	-11.245	0.710	-89.206	-186.210	296.501	-267.545	-5.325	355.790	-330.498	-358.794	355.870	-17.437	-63.511	13.258	-324.645	-22.237	351.553	-12.442	-0.000	357.976	-0.000	-0.000	0.000	-350.000	-358.327	332.272	-6.771	-0.000	332.010	0.000	-0.000	341.340	-0.000	-0.000	-0.000	0.000	-0.683	324.423	-357.870	-0.000	324.450	0.000	-0.000	336.300	-0.000	-357.274	357.452	-10.128	-3.809	322.191	-348.908	0.000	321.754	-0.000	-0.000	334.503	-0.000	-354.070	354.881	-20.590	-4.258	330.187	-344.100	-0.000	328.203	0.000	-0.000	338.802	-0.000	-346.777	11.082	-1.539	-346.777	11.082	-1.539	-350.799	5.027	-278.700	-273.430	315.760	-47.698	-34.431	0.346	-26.864	-333.259	69.941	-11.477	-274.878	18.830	-28.810	-9.157	330.210	-349.563	-0.000	339.387	-0.000	0.000	-0.000	-10.000	-3.258	336.448	-344.463	0.000	334.681	0.000	-0.000	343.121	-0.000	0.000	-0.000	-0.000	-1.734	335.391	-352.063	0.000	334.987	-0.000	-0.000	343.324	-0.000	-2.726	357.452	-349.872	-359.222	339.001	-4.195	-0.000	338.904	0.000	-0.000	345.936	-0.000	-5.930	354.881	-339.410	-0.272	336.226	-358.710	0.000	336.254	-0.000	-0.000	344.169	-0.000	
-8.280	88.352	49.920	-311.975	23.893	-335.391	-102.070	355.489	-348.030	-0.000	0.000	-0.084	-82.655	53.962	-0.606	-0.000	38.541	-6.697	-295.735	5.721	-50.978	-359.665	359.905	-328.444	-106.891	77.435	-190.613	0.000	0.765	-0.005	-359.009	3.434	-175.742	-0.993	356.558	-355.732	-0.994	356.556	-355.729	0.000	-0.000	-0.000	-11.245	0.710	-89.206	-186.210	296.501	-267.545	-5.325	355.790	-330.498	-358.794	355.870	-17.437	-63.511	13.258	-324.645	-22.237	351.553	-12.442	-0.000	357.976	-0.000	-0.000	0.000	-350.000	-358.327	332.272	-6.771	-0.000	332.010	0.000	-0.000	341.340	-0.000	-0.000	-0.000	0.000	-0.683	324.423	-357.870	-0.000	324.450	0.000	-0.000	336.300	-0.000	-357.274	357.452	-10.128	-3.809	322.191	-348.908	0.000	321.754	-0.000	-0.000	334.503	-0.000	-354.070	354.881	-20.590	-4.258	330.187	-344.100	-0.000	328.203	0.000	-0.000	338.802	-0.000	-346.777	11.082	-1.539	-346.777	11.082	-1.539	-350.799	5.027	-278.700	-273.430	315.760	-47.698	-34.431	0.346	-26.864	-333.259	69.941	-11.477	-274.878	18.830	-28.810	-9.157	330.210	-349.563	-0.000	339.387	-0.000	0.000	-0.000	-10.000	-3.258	336.448	-344.463	0.000	334.681	0.000	-0.000	343.121	-0.000	0.000	-0.000	-0.000	-1.734	335.391	-352.063	0.000	334.987	-0.000	-0.000	343.324	-0.000	-2.726	357.452	-349.872	-359.222	339.001	-4.195	-0.000	338.904	0.000	-0.000	345.936	-0.000	-5.930	354.881	-339.410	-0.272	336.226	-358.710	0.000	336.254	-0.000	-0.000	344.169	-0.000	
